<svg width="45" height="30" viewBox="0 0 45 30" fill="none" xmlns="http://www.w3.org/2000/svg">
<g clip-path="url(#clip0_9_43)">
<path d="M-6.10352e-05 -3.05176e-05H44.9999V30H-6.10352e-05V-3.05176e-05Z" fill="#009B3A"/>
<path d="M3.82501 15L22.5 26.3571L41.175 15L22.5 3.64285L3.82501 15Z" fill="#FEDF00"/>
<path d="M22.5 22.5C26.8492 22.5 30.375 19.1421 30.375 15C30.375 10.8579 26.8492 7.5 22.5 7.5C18.1508 7.5 14.625 10.8579 14.625 15C14.625 19.1421 18.1508 22.5 22.5 22.5Z" fill="#002776"/>
<mask id="mask0_9_43" style="mask-type:luminance" maskUnits="userSpaceOnUse" x="14" y="7" width="17" height="16">
<path d="M22.5 22.5C26.8492 22.5 30.375 19.1421 30.375 15C30.375 10.8579 26.8492 7.5 22.5 7.5C18.1508 7.5 14.625 10.8579 14.625 15C14.625 19.1421 18.1508 22.5 22.5 22.5Z" fill="white"/>
</mask>
<g mask="url(#mask0_9_43)">
<path d="M-1.125 30C-1.125 25.1693 0.88995 20.5364 4.47658 17.1205C8.06322 13.7047 12.9277 11.7857 18 11.7857C23.0723 11.7857 27.9368 13.7047 31.5234 17.1205C35.1101 20.5364 37.125 25.1693 37.125 30H36C36 25.4534 34.1036 21.0931 30.7279 17.8782C27.3523 14.6633 22.7739 12.8571 18 12.8571C13.2261 12.8571 8.64773 14.6633 5.27208 17.8782C1.89642 21.0931 1.28523e-07 25.4534 1.28523e-07 30H-1.125Z" fill="white"/>
</g>
<path fill-rule="evenodd" clip-rule="evenodd" d="M15.7835 12.8077C15.8723 12.7973 15.9527 12.75 16.007 12.6762C16.0612 12.6023 16.0849 12.5081 16.0728 12.414C16.0607 12.32 16.0137 12.234 15.9424 12.1749C15.871 12.1157 15.7809 12.0883 15.6921 12.0987C15.6033 12.1091 15.5229 12.1564 15.4686 12.2303C15.4144 12.3041 15.3907 12.3984 15.4028 12.4924C15.4149 12.5864 15.4619 12.6724 15.5332 12.7316C15.6046 12.7907 15.6947 12.8181 15.7835 12.8077M15.7665 12.676C15.8187 12.6699 15.8657 12.6406 15.8972 12.5945C15.9287 12.5484 15.9422 12.4893 15.9345 12.4302C15.9269 12.3711 15.8989 12.3169 15.8566 12.2794C15.8143 12.2419 15.7613 12.2243 15.7091 12.2304C15.6569 12.2365 15.6099 12.2658 15.5784 12.3119C15.5469 12.358 15.5334 12.4171 15.5411 12.4762C15.5487 12.5353 15.5767 12.5896 15.619 12.627C15.6613 12.6645 15.7144 12.6821 15.7665 12.676" fill="#009B3A"/>
<path fill-rule="evenodd" clip-rule="evenodd" d="M16.5555 12.7432L16.6613 12.6908L16.5821 12.5038L16.8098 12.391C16.8573 12.3675 16.8957 12.3283 16.9167 12.282C16.9377 12.2357 16.9395 12.1861 16.9217 12.1441C16.904 12.1021 16.8681 12.0712 16.8219 12.0581C16.7758 12.0451 16.7232 12.0509 16.6758 12.0744L16.3504 12.2356L16.5555 12.7432ZM16.5425 12.4103L16.7621 12.3015C16.7815 12.2919 16.7972 12.2758 16.8058 12.2569C16.8144 12.2379 16.8151 12.2177 16.8079 12.2005C16.8006 12.1833 16.7859 12.1707 16.767 12.1653C16.7482 12.16 16.7266 12.1624 16.7072 12.172L16.4876 12.2808L16.5425 12.4103Z" fill="#009B3A"/>
<path d="M17.0306 12.5945C17.0004 12.5259 16.934 12.3751 16.8057 12.4327L16.6432 12.5057C16.8314 12.4212 16.8978 12.572 16.9279 12.6405" fill="#009B3A"/>
<path fill-rule="evenodd" clip-rule="evenodd" d="M17.3451 12.6868L17.6986 12.681C17.7408 12.6803 17.7825 12.6716 17.8212 12.6556C17.8599 12.6396 17.8949 12.6164 17.9242 12.5875C17.9536 12.5586 17.9766 12.5245 17.9921 12.4871C18.0076 12.4497 18.0151 12.4097 18.0144 12.3695L18.0125 12.2675C18.0118 12.2273 18.0028 12.1877 17.9859 12.1508C17.9691 12.1139 17.9448 12.0806 17.9144 12.0526C17.8841 12.0247 17.8482 12.0028 17.809 11.988C17.7697 11.9733 17.7278 11.9661 17.6855 11.9668L17.332 11.9727L17.3451 12.6868ZM17.482 12.5519L17.6855 12.5485C17.7395 12.5476 17.7909 12.5263 17.8284 12.4893C17.8659 12.4523 17.8864 12.4027 17.8855 12.3513L17.8844 12.2901C17.8834 12.2386 17.8611 12.1897 17.8222 12.154C17.7834 12.1183 17.7312 12.0987 17.6773 12.0996L17.4737 12.103L17.482 12.5519Z" fill="#009B3A"/>
<path d="M18.2974 12.6779L18.972 12.7003L18.9769 12.5678L18.4308 12.5496L18.4375 12.366L18.8658 12.3803L18.8703 12.2579L18.442 12.2437L18.4472 12.1009L18.9612 12.118L18.9661 11.9854L18.3236 11.9641L18.2974 12.6779Z" fill="#009B3A"/>
<path d="M19.2489 12.7165L19.377 12.7272L19.4218 12.2392L19.5264 12.7396L19.6438 12.7494L19.8381 12.2739L19.7933 12.7618L19.9213 12.7725L19.9867 12.0609L19.7999 12.0454L19.6057 12.5209L19.5011 12.0205L19.3143 12.0049L19.2489 12.7165Z" fill="#009B3A"/>
<path d="M20.8029 12.8834L21.3572 12.9741L21.379 12.8534L20.9514 12.7834L20.9804 12.6225L21.3288 12.6796L21.3506 12.5589L21.0022 12.5019L21.0221 12.3912L21.4366 12.4591L21.4584 12.3384L20.9172 12.2498L20.8029 12.8834Z" fill="#009B3A"/>
<path fill-rule="evenodd" clip-rule="evenodd" d="M22.227 13.1498L22.3619 13.183L22.4316 12.9262L22.7221 12.9977C22.7826 13.0126 22.8468 13.004 22.9007 12.9738C22.9546 12.9436 22.9936 12.8942 23.0093 12.8366C23.0249 12.7789 23.0159 12.7177 22.9842 12.6664C22.9524 12.6151 22.9006 12.5779 22.8401 12.563L22.4252 12.4608L22.227 13.1498ZM22.4665 12.7977L22.7466 12.8667C22.7713 12.8728 22.7976 12.8693 22.8196 12.8569C22.8417 12.8446 22.8577 12.8244 22.8641 12.8008C22.8705 12.7772 22.8668 12.7522 22.8538 12.7312C22.8408 12.7102 22.8196 12.695 22.7948 12.6889L22.5148 12.6199L22.4665 12.7977Z" fill="#009B3A"/>
<path fill-rule="evenodd" clip-rule="evenodd" d="M23.1472 13.2462L23.2531 13.3145L23.3854 13.1125L23.6134 13.2594C23.6609 13.29 23.7183 13.3014 23.7729 13.291C23.8275 13.2806 23.8748 13.2493 23.9045 13.204C23.9342 13.1586 23.9438 13.103 23.9312 13.0493C23.9186 12.9956 23.8849 12.9482 23.8373 12.9176L23.5116 12.7076L23.1472 13.2462ZM23.4516 13.0114L23.6714 13.1532C23.6909 13.1657 23.7143 13.1703 23.7367 13.1661C23.759 13.1618 23.7784 13.149 23.7905 13.1305C23.8027 13.1119 23.8066 13.0892 23.8014 13.0672C23.7963 13.0452 23.7825 13.0258 23.763 13.0133L23.5432 12.8716L23.4516 13.0114Z" fill="#009B3A"/>
<path d="M23.6946 13.5662C23.7457 13.4903 23.8583 13.3235 23.7318 13.2471L23.5715 13.1504C23.7571 13.2624 23.6445 13.4292 23.5934 13.5051" fill="#009B3A"/>
<path fill-rule="evenodd" clip-rule="evenodd" d="M24.3694 13.7755C24.4532 13.8054 24.5475 13.7988 24.6314 13.7571C24.7153 13.7155 24.782 13.6423 24.8168 13.5536C24.8517 13.4648 24.8518 13.3679 24.8171 13.284C24.7825 13.2002 24.7159 13.1363 24.632 13.1065C24.5482 13.0766 24.454 13.0832 24.37 13.1248C24.2861 13.1665 24.2194 13.2397 24.1846 13.3284C24.1498 13.4171 24.1497 13.5141 24.1843 13.5979C24.219 13.6818 24.2855 13.7457 24.3694 13.7755M24.4182 13.6513C24.4674 13.6688 24.5233 13.6635 24.5736 13.6364C24.6239 13.6094 24.6645 13.5629 24.6864 13.5071C24.7083 13.4513 24.7097 13.3909 24.6904 13.3391C24.671 13.2872 24.6325 13.2482 24.5833 13.2307C24.534 13.2132 24.4781 13.2185 24.4278 13.2456C24.3775 13.2726 24.3369 13.3191 24.3151 13.3749C24.2932 13.4306 24.2917 13.4911 24.3111 13.5429C24.3304 13.5948 24.3689 13.6337 24.4182 13.6513" fill="#009B3A"/>
<mask id="mask1_9_43" style="mask-type:luminance" maskUnits="userSpaceOnUse" x="24" y="13" width="2" height="2">
<path d="M24.9428 13.9026L25.3441 13.332L25.8609 13.6728L25.4596 14.2434L24.9428 13.9026ZM25.4706 13.6899L25.4018 13.7877L25.6602 13.9581L25.729 13.8603L25.4706 13.6899Z" fill="white"/>
</mask>
<g mask="url(#mask1_9_43)">
<path fill-rule="evenodd" clip-rule="evenodd" d="M25.2029 14.0746C25.2719 14.1194 25.359 14.1321 25.4451 14.1099C25.5311 14.0877 25.6092 14.0325 25.6619 13.9564C25.7147 13.8803 25.7379 13.7896 25.7264 13.7041C25.715 13.6186 25.6698 13.5455 25.6008 13.5007C25.5318 13.456 25.4447 13.4433 25.3586 13.4655C25.2725 13.4876 25.1945 13.5428 25.1417 13.619C25.089 13.6951 25.0658 13.7858 25.0772 13.8713C25.0887 13.9567 25.1339 14.0299 25.2029 14.0746M25.2768 13.9681C25.3173 13.9943 25.3693 14.0005 25.4214 13.9853C25.4735 13.9701 25.5214 13.9346 25.5546 13.8868C25.5877 13.839 25.6035 13.7826 25.5983 13.7302C25.5931 13.6778 25.5674 13.6336 25.5269 13.6073C25.4864 13.581 25.4343 13.5748 25.3823 13.5901C25.3302 13.6053 25.2823 13.6408 25.2491 13.6886C25.2159 13.7364 25.2002 13.7927 25.2054 13.8452C25.2106 13.8976 25.2363 13.9418 25.2768 13.9681" fill="#009B3A"/>
</g>
<path d="M25.4611 13.808L25.7113 13.929L25.6585 14.0094L25.4082 13.8885L25.4611 13.808Z" fill="#009B3A"/>
<path d="M25.6316 13.8752L25.7113 13.928L25.5432 14.2434L25.4635 14.1905L25.6316 13.8752Z" fill="#009B3A"/>
<path fill-rule="evenodd" clip-rule="evenodd" d="M25.8132 14.3112L25.9268 14.3794L26.071 14.1583L26.3157 14.3052C26.3667 14.3359 26.4284 14.3455 26.4873 14.3321C26.5463 14.3187 26.5976 14.2832 26.6299 14.2336C26.6623 14.184 26.6731 14.1242 26.6599 14.0675C26.6467 14.0107 26.6106 13.9616 26.5597 13.931L26.2101 13.721L25.8132 14.3112ZM26.1431 14.0477L26.379 14.1894C26.3999 14.202 26.4251 14.2059 26.4492 14.2004C26.4734 14.1949 26.4943 14.1804 26.5076 14.1601C26.5208 14.1398 26.5252 14.1154 26.5198 14.0922C26.5144 14.0689 26.4997 14.0489 26.4788 14.0363L26.2429 13.8946L26.1431 14.0477Z" fill="#009B3A"/>
<path d="M26.3582 14.626C26.414 14.5415 26.5367 14.3556 26.4041 14.2777L26.2361 14.1789C26.4306 14.2933 26.3079 14.4791 26.2521 14.5636" fill="#009B3A"/>
<path d="M26.6622 14.7659L27.2497 15.0825L27.3183 14.967L26.8427 14.7108L26.9377 14.5509L27.3107 14.7519L27.374 14.6453L27.001 14.4443L27.0749 14.32L27.5225 14.5612L27.5911 14.4457L27.0316 14.1442L26.6622 14.7659Z" fill="#009B3A"/>
<path d="M27.7565 15.1156C27.7162 15.1758 27.757 15.2429 27.8474 15.2978C27.9377 15.3526 27.9993 15.3506 28.0253 15.3119C28.1073 15.1893 27.633 15.0104 27.7792 14.7967C27.9053 14.613 28.1209 14.7559 28.2022 14.8053C28.2835 14.8546 28.4141 14.9822 28.3126 15.1293L28.1748 15.0457C28.2179 14.9812 28.1705 14.9191 28.0982 14.8753C28.0282 14.8328 27.9713 14.8134 27.9296 14.8758C27.8597 14.9755 28.3245 15.1638 28.182 15.3768C28.0769 15.5338 27.8941 15.4653 27.7721 15.3912C27.6682 15.3282 27.5129 15.1795 27.6141 15.0292L27.7565 15.1156Z" fill="#009B3A"/>
<path d="M28.561 15.6223C28.5175 15.6804 28.5546 15.7495 28.6418 15.8087C28.729 15.868 28.7906 15.8691 28.8187 15.8318C28.9074 15.7134 28.4436 15.5111 28.6013 15.3049C28.7373 15.1278 28.9447 15.2813 29.0232 15.3346C29.1017 15.3879 29.2251 15.5219 29.1156 15.6637L28.9826 15.5734C29.0293 15.5111 28.9853 15.4467 28.9155 15.3993C28.8479 15.3534 28.7922 15.3312 28.7471 15.3914C28.6718 15.4876 29.1256 15.6987 28.9716 15.9043C28.8581 16.0559 28.6793 15.9783 28.5615 15.8984C28.4612 15.8302 28.3143 15.674 28.4237 15.5289L28.561 15.6223Z" fill="#009B3A"/>
<path fill-rule="evenodd" clip-rule="evenodd" d="M29.322 16.4441C29.392 16.4972 29.4838 16.5186 29.5771 16.5037C29.6704 16.4888 29.7576 16.4388 29.8195 16.3647C29.8814 16.2906 29.913 16.1984 29.9072 16.1084C29.9015 16.0185 29.8589 15.9382 29.7888 15.8851C29.7188 15.832 29.627 15.8106 29.5337 15.8255C29.4404 15.8404 29.3532 15.8904 29.2913 15.9645C29.2294 16.0386 29.1978 16.1308 29.2036 16.2207C29.2093 16.3107 29.2519 16.391 29.322 16.4441M29.4087 16.3403C29.4498 16.3714 29.5047 16.3828 29.5613 16.3719C29.6179 16.361 29.6716 16.3287 29.7105 16.2821C29.7494 16.2355 29.7704 16.1784 29.7689 16.1235C29.7673 16.0685 29.7433 16.0201 29.7021 15.9889C29.661 15.9577 29.6061 15.9464 29.5495 15.9573C29.4929 15.9682 29.4392 16.0005 29.4003 16.0471C29.3614 16.0937 29.3404 16.1507 29.342 16.2057C29.3435 16.2607 29.3675 16.3091 29.4087 16.3403" fill="#009B3A"/>
<path d="M16.0714 13.3316L15.9671 13.6373L16.1276 13.687" fill="white"/>
<path d="M16.0714 13.3316L16.1757 13.6373L16.0152 13.687" fill="white"/>
<path d="M16.3779 13.5537L16.0549 13.5881L16.0694 13.7144" fill="white"/>
<path d="M16.3924 13.5044L16.168 13.7426L16.0202 13.662" fill="white"/>
<path d="M15.7504 13.5044L15.9748 13.7427L16.1227 13.662" fill="white"/>
<path d="M15.7649 13.5537L16.0879 13.5881L16.0735 13.7145" fill="white"/>
<path d="M16.2698 13.9171L16.1678 13.6074L16.005 13.6531" fill="white"/>
<path d="M16.2766 13.9131L15.9967 13.7288L16.0892 13.5941" fill="white"/>
<path d="M15.8663 13.9131L16.1461 13.7288L16.0536 13.5941" fill="white"/>
<path d="M15.873 13.9171L15.975 13.6074L16.1378 13.6531" fill="white"/>
<path d="M16.7679 16.4847L16.6636 16.7904L16.8241 16.84" fill="white"/>
<path d="M16.7679 16.4847L16.8722 16.7904L16.7117 16.84" fill="white"/>
<path d="M17.0744 16.7068L16.7514 16.7412L16.7658 16.8675" fill="white"/>
<path d="M17.0889 16.6574L16.8645 16.8957L16.7166 16.815" fill="white"/>
<path d="M16.4469 16.6574L16.6712 16.8957L16.8191 16.815" fill="white"/>
<path d="M16.4614 16.7068L16.7844 16.7412L16.7699 16.8675" fill="white"/>
<path d="M16.9662 17.0701L16.8643 16.7604L16.7015 16.8061" fill="white"/>
<path d="M16.973 17.0661L16.6932 16.8818L16.7856 16.7472" fill="white"/>
<path d="M16.5627 17.0661L16.8425 16.8818L16.7501 16.7472" fill="white"/>
<path d="M16.5695 17.0701L16.6715 16.7604L16.8343 16.8061" fill="white"/>
<path d="M15.8035 17.2117L15.7166 17.4665L15.8504 17.5079" fill="white"/>
<path d="M15.8035 17.2117L15.8904 17.4665L15.7567 17.5079" fill="white"/>
<path d="M16.059 17.3968L15.7898 17.4255L15.8018 17.5307" fill="white"/>
<path d="M16.071 17.3557L15.8841 17.5543L15.7609 17.487" fill="white"/>
<path d="M15.5361 17.3557L15.723 17.5542L15.8463 17.487" fill="white"/>
<path d="M15.5482 17.3968L15.8174 17.4255L15.8053 17.5307" fill="white"/>
<path d="M15.9689 17.6996L15.8839 17.4415L15.7482 17.4796" fill="white"/>
<path d="M15.9745 17.6963L15.7413 17.5427L15.8183 17.4305" fill="white"/>
<path d="M15.6326 17.6963L15.8658 17.5427L15.7888 17.4305" fill="white"/>
<path d="M15.6382 17.6996L15.7232 17.4415L15.8589 17.4796" fill="white"/>
<path d="M17.5392 16.1939L17.4896 16.3394L17.566 16.3631" fill="white"/>
<path d="M17.5392 16.1939L17.5889 16.3394L17.5125 16.3631" fill="white"/>
<path d="M17.6852 16.2996L17.5314 16.316L17.5383 16.3762" fill="white"/>
<path d="M17.6921 16.2762L17.5852 16.3896L17.5148 16.3512" fill="white"/>
<path d="M17.3864 16.2762L17.4932 16.3896L17.5637 16.3512" fill="white"/>
<path d="M17.3933 16.2997L17.5471 16.316L17.5403 16.3762" fill="white"/>
<path d="M17.6337 16.4727L17.5852 16.3252L17.5076 16.347" fill="white"/>
<path d="M17.6369 16.4708L17.5037 16.383L17.5477 16.3189" fill="white"/>
<path d="M17.4416 16.4708L17.5748 16.383L17.5308 16.3189" fill="white"/>
<path d="M17.4448 16.4727L17.4933 16.3252L17.5709 16.3469" fill="white"/>
<path d="M18.4071 17.2832L18.3202 17.5379L18.4539 17.5793" fill="white"/>
<path d="M18.4071 17.2832L18.494 17.5379L18.3603 17.5793" fill="white"/>
<path d="M18.6625 17.4683L18.3933 17.4969L18.4054 17.6022" fill="white"/>
<path d="M18.6746 17.4272L18.4877 17.6257L18.3644 17.5585" fill="white"/>
<path d="M18.1396 17.4271L18.3266 17.6257L18.4498 17.5585" fill="white"/>
<path d="M18.1517 17.4683L18.4209 17.4969L18.4089 17.6022" fill="white"/>
<path d="M18.5724 17.7711L18.4875 17.513L18.3518 17.551" fill="white"/>
<path d="M18.5781 17.7677L18.3449 17.6142L18.4219 17.5019" fill="white"/>
<path d="M18.2362 17.7677L18.4694 17.6142L18.3924 17.5019" fill="white"/>
<path d="M18.2418 17.7711L18.3268 17.513L18.4625 17.551" fill="white"/>
<path d="M18.1714 18.0816L18.1019 18.2854L18.2089 18.3185" fill="white"/>
<path d="M18.1714 18.0816L18.241 18.2854L18.134 18.3185" fill="white"/>
<path d="M18.3758 18.2297L18.1604 18.2526L18.1701 18.3368" fill="white"/>
<path d="M18.3854 18.1968L18.2359 18.3557L18.1373 18.3019" fill="white"/>
<path d="M17.9575 18.1968L18.107 18.3557L18.2056 18.3019" fill="white"/>
<path d="M17.9671 18.2297L18.1825 18.2526L18.1728 18.3368" fill="white"/>
<path d="M18.3037 18.472L18.2357 18.2655L18.1272 18.2959" fill="white"/>
<path d="M18.3082 18.4693L18.1217 18.3464L18.1833 18.2567" fill="white"/>
<path d="M18.0347 18.4693L18.2212 18.3464L18.1596 18.2567" fill="white"/>
<path d="M18.0392 18.472L18.1072 18.2655L18.2157 18.2959" fill="white"/>
<path d="M24.9429 12.3521L24.8386 12.6577L24.9991 12.7074" fill="white"/>
<path d="M24.9429 12.3521L25.0472 12.6577L24.8867 12.7074" fill="white"/>
<path d="M25.2494 12.5741L24.9264 12.6085L24.9408 12.7348" fill="white"/>
<path d="M25.2639 12.5248L25.0395 12.7631L24.8916 12.6824" fill="white"/>
<path d="M24.6219 12.5248L24.8462 12.7631L24.9941 12.6824" fill="white"/>
<path d="M24.6364 12.5742L24.9594 12.6086L24.9449 12.7349" fill="white"/>
<path d="M25.1412 12.9375L25.0393 12.6278L24.8765 12.6735" fill="white"/>
<path d="M25.148 12.9335L24.8682 12.7492L24.9606 12.6146" fill="white"/>
<path d="M24.7377 12.9335L25.0175 12.7492L24.9251 12.6146" fill="white"/>
<path d="M24.7445 12.9375L24.8465 12.6278L25.0093 12.6735" fill="white"/>
<path d="M28.0179 17.3112L27.9136 17.6169L28.0741 17.6666" fill="white"/>
<path d="M28.0179 17.3112L28.1222 17.6169L27.9617 17.6666" fill="white"/>
<path d="M28.3244 17.5333L28.0014 17.5677L28.0158 17.694" fill="white"/>
<path d="M28.3389 17.4839L28.1145 17.7222L27.9666 17.6415" fill="white"/>
<path d="M27.6969 17.484L27.9212 17.7223L28.0691 17.6416" fill="white"/>
<path d="M27.7114 17.5333L28.0344 17.5677L28.0199 17.694" fill="white"/>
<path d="M28.2162 17.8967L28.1143 17.587L27.9515 17.6326" fill="white"/>
<path d="M28.223 17.8927L27.9432 17.7084L28.0356 17.5737" fill="white"/>
<path d="M27.8127 17.8927L28.0925 17.7084L28.0001 17.5737" fill="white"/>
<path d="M27.8195 17.8967L27.9215 17.587L28.0843 17.6326" fill="white"/>
<path d="M29.1107 17.4898L29.0412 17.6936L29.1482 17.7267" fill="white"/>
<path d="M29.1107 17.4898L29.1802 17.6936L29.0733 17.7267" fill="white"/>
<path d="M29.3151 17.6379L29.0997 17.6608L29.1093 17.745" fill="white"/>
<path d="M29.3247 17.605L29.1751 17.7638L29.0766 17.71" fill="white"/>
<path d="M28.8967 17.605L29.0463 17.7638L29.1449 17.71" fill="white"/>
<path d="M28.9064 17.6379L29.1217 17.6608L29.1121 17.745" fill="white"/>
<path d="M29.243 17.8801L29.175 17.6737L29.0665 17.7041" fill="white"/>
<path d="M29.2475 17.8775L29.061 17.7546L29.1226 17.6648" fill="white"/>
<path d="M28.9739 17.8775L29.1605 17.7546L29.0989 17.6648" fill="white"/>
<path d="M28.9785 17.8801L29.0464 17.6737L29.155 17.7041" fill="white"/>
<path d="M28.3392 18.0281L28.2523 18.2828L28.3861 18.3242" fill="white"/>
<path d="M28.3392 18.0281L28.4261 18.2828L28.2924 18.3242" fill="white"/>
<path d="M28.5947 18.2132L28.3255 18.2418L28.3375 18.3471" fill="white"/>
<path d="M28.6068 18.1721L28.4198 18.3706L28.2966 18.3034" fill="white"/>
<path d="M28.0718 18.172L28.2587 18.3706L28.382 18.3034" fill="white"/>
<path d="M28.0839 18.2132L28.3531 18.2418L28.341 18.3471" fill="white"/>
<path d="M28.5046 18.516L28.4196 18.2579L28.2839 18.2959" fill="white"/>
<path d="M28.5102 18.5126L28.277 18.3591L28.354 18.2468" fill="white"/>
<path d="M28.1683 18.5126L28.4015 18.3591L28.3245 18.2468" fill="white"/>
<path d="M28.174 18.516L28.2589 18.2579L28.3946 18.2959" fill="white"/>
<path d="M26.4428 19.5995L26.3559 19.8542L26.4896 19.8956" fill="white"/>
<path d="M26.4428 19.5995L26.5297 19.8542L26.396 19.8956" fill="white"/>
<path d="M26.6982 19.7845L26.429 19.8132L26.4411 19.9185" fill="white"/>
<path d="M26.7103 19.7434L26.5234 19.942L26.4001 19.8748" fill="white"/>
<path d="M26.1754 19.7434L26.3623 19.942L26.4855 19.8748" fill="white"/>
<path d="M26.1874 19.7846L26.4566 19.8132L26.4446 19.9185" fill="white"/>
<path d="M26.6082 20.0874L26.5232 19.8293L26.3875 19.8673" fill="white"/>
<path d="M26.6138 20.084L26.3806 19.9305L26.4576 19.8183" fill="white"/>
<path d="M26.2719 20.084L26.5051 19.9305L26.4281 19.8183" fill="white"/>
<path d="M26.2775 20.0874L26.3625 19.8293L26.4982 19.8673" fill="white"/>
<path d="M26.4321 20.4082L26.3626 20.612L26.4696 20.6451" fill="white"/>
<path d="M26.4321 20.4082L26.5017 20.612L26.3947 20.6451" fill="white"/>
<path d="M26.6365 20.5562L26.4211 20.5792L26.4308 20.6634" fill="white"/>
<path d="M26.6461 20.5233L26.4966 20.6822L26.398 20.6284" fill="white"/>
<path d="M26.2181 20.5233L26.3677 20.6822L26.4663 20.6284" fill="white"/>
<path d="M26.2278 20.5562L26.4431 20.5792L26.4335 20.6634" fill="white"/>
<path d="M26.5644 20.7985L26.4964 20.592L26.3879 20.6225" fill="white"/>
<path d="M26.5689 20.7958L26.3824 20.673L26.444 20.5832" fill="white"/>
<path d="M26.2953 20.7958L26.4819 20.673L26.4203 20.5832" fill="white"/>
<path d="M26.2999 20.7985L26.3679 20.592L26.4764 20.6225" fill="white"/>
<path d="M27.225 19.0612L27.1554 19.265L27.2624 19.2981" fill="white"/>
<path d="M27.225 19.0612L27.2945 19.265L27.1875 19.2981" fill="white"/>
<path d="M27.4293 19.2093L27.214 19.2322L27.2236 19.3164" fill="white"/>
<path d="M27.439 19.1764L27.2894 19.3352L27.1908 19.2815" fill="white"/>
<path d="M27.011 19.1764L27.1606 19.3352L27.2591 19.2815" fill="white"/>
<path d="M27.0206 19.2093L27.236 19.2322L27.2263 19.3164" fill="white"/>
<path d="M27.3572 19.4515L27.2893 19.2451L27.1807 19.2755" fill="white"/>
<path d="M27.3618 19.4489L27.1752 19.326L27.2368 19.2362" fill="white"/>
<path d="M27.0882 19.4489L27.2747 19.326L27.2131 19.2362" fill="white"/>
<path d="M27.0927 19.4515L27.1607 19.2451L27.2692 19.2755" fill="white"/>
<path d="M27.8571 18.6301L27.7702 18.8848L27.9039 18.9262" fill="white"/>
<path d="M27.8571 18.6301L27.944 18.8848L27.8103 18.9262" fill="white"/>
<path d="M28.1125 18.8152L27.8434 18.8439L27.8554 18.9491" fill="white"/>
<path d="M28.1246 18.7741L27.9377 18.9726L27.8144 18.9054" fill="white"/>
<path d="M27.5897 18.774L27.7766 18.9726L27.8999 18.9054" fill="white"/>
<path d="M27.6017 18.8152L27.8709 18.8439L27.8589 18.9491" fill="white"/>
<path d="M28.0225 19.118L27.9375 18.8599L27.8018 18.898" fill="white"/>
<path d="M28.0281 19.1147L27.7949 18.9611L27.8719 18.8489" fill="white"/>
<path d="M27.6862 19.1147L27.9194 18.9611L27.8424 18.8489" fill="white"/>
<path d="M27.6918 19.118L27.7768 18.8599L27.9125 18.898" fill="white"/>
<path d="M26.4107 18.9184L26.3412 19.1222L26.4482 19.1553" fill="white"/>
<path d="M26.4107 18.9184L26.4802 19.1222L26.3732 19.1553" fill="white"/>
<path d="M26.6151 19.0664L26.3997 19.0894L26.4093 19.1736" fill="white"/>
<path d="M26.6247 19.0335L26.4751 19.1924L26.3765 19.1386" fill="white"/>
<path d="M26.1967 19.0335L26.3463 19.1924L26.4449 19.1386" fill="white"/>
<path d="M26.2064 19.0664L26.4217 19.0894L26.4121 19.1736" fill="white"/>
<path d="M26.543 19.3087L26.475 19.1022L26.3664 19.1327" fill="white"/>
<path d="M26.5475 19.306L26.3609 19.1832L26.4226 19.0934" fill="white"/>
<path d="M26.2739 19.306L26.4605 19.1832L26.3988 19.0934" fill="white"/>
<path d="M26.2784 19.3087L26.3464 19.1022L26.455 19.1327" fill="white"/>
<path d="M19.4999 15.0383L19.413 15.293L19.5468 15.3344" fill="white"/>
<path d="M19.4999 15.0383L19.5869 15.293L19.4531 15.3344" fill="white"/>
<path d="M19.7554 15.2234L19.4862 15.252L19.4982 15.3573" fill="white"/>
<path d="M19.7675 15.1823L19.5805 15.3808L19.4573 15.3136" fill="white"/>
<path d="M19.2325 15.1822L19.4194 15.3808L19.5427 15.3136" fill="white"/>
<path d="M19.2446 15.2234L19.5138 15.252L19.5017 15.3573" fill="white"/>
<path d="M19.6653 15.5262L19.5803 15.2681L19.4446 15.3061" fill="white"/>
<path d="M19.6709 15.5228L19.4377 15.3693L19.5148 15.257" fill="white"/>
<path d="M19.329 15.5228L19.5622 15.3693L19.4852 15.257" fill="white"/>
<path d="M19.3347 15.5262L19.4196 15.2681L19.5553 15.3061" fill="white"/>
<path d="M24.6429 14.4082L24.5734 14.612L24.6803 14.6451" fill="white"/>
<path d="M24.6429 14.4082L24.7124 14.612L24.6054 14.6451" fill="white"/>
<path d="M24.8472 14.5562L24.6319 14.5792L24.6415 14.6634" fill="white"/>
<path d="M24.8569 14.5233L24.7073 14.6822L24.6087 14.6284" fill="white"/>
<path d="M24.4289 14.5233L24.5785 14.6822L24.677 14.6284" fill="white"/>
<path d="M24.4385 14.5562L24.6539 14.5792L24.6443 14.6634" fill="white"/>
<path d="M24.7751 14.7985L24.7072 14.592L24.5986 14.6225" fill="white"/>
<path d="M24.7797 14.7958L24.5931 14.673L24.6547 14.5832" fill="white"/>
<path d="M24.5061 14.7958L24.6926 14.673L24.631 14.5832" fill="white"/>
<path d="M24.5106 14.7985L24.5786 14.592L24.6871 14.6225" fill="white"/>
<path d="M22.5 18.0459L22.3957 18.3516L22.5562 18.4013" fill="white"/>
<path d="M22.5 18.0459L22.6043 18.3516L22.4438 18.4013" fill="white"/>
<path d="M22.8065 18.268L22.4835 18.3024L22.4979 18.4287" fill="white"/>
<path d="M22.821 18.2187L22.5966 18.4569L22.4488 18.3763" fill="white"/>
<path d="M22.179 18.2187L22.4034 18.457L22.5512 18.3763" fill="white"/>
<path d="M22.1935 18.268L22.5165 18.3024L22.5021 18.4288" fill="white"/>
<path d="M22.6984 18.6314L22.5964 18.3217L22.4336 18.3673" fill="white"/>
<path d="M22.7051 18.6274L22.4253 18.4431L22.5178 18.3084" fill="white"/>
<path d="M22.2949 18.6274L22.5747 18.4431L22.4822 18.3084" fill="white"/>
<path d="M22.3016 18.6314L22.4036 18.3217L22.5664 18.3673" fill="white"/>
<path d="M23.4107 16.6097L23.3238 16.8644L23.4575 16.9058" fill="white"/>
<path d="M23.4107 16.6097L23.4976 16.8644L23.3639 16.9058" fill="white"/>
<path d="M23.6661 16.7947L23.3969 16.8234L23.409 16.9287" fill="white"/>
<path d="M23.6782 16.7536L23.4913 16.9522L23.368 16.885" fill="white"/>
<path d="M23.1432 16.7536L23.3302 16.9522L23.4534 16.885" fill="white"/>
<path d="M23.1553 16.7948L23.4245 16.8234L23.4125 16.9287" fill="white"/>
<path d="M23.576 17.0976L23.4911 16.8395L23.3554 16.8775" fill="white"/>
<path d="M23.5817 17.0942L23.3485 16.9407L23.4255 16.8284" fill="white"/>
<path d="M23.2398 17.0942L23.473 16.9407L23.396 16.8284" fill="white"/>
<path d="M23.2454 17.0976L23.3304 16.8395L23.4661 16.8775" fill="white"/>
<path d="M22.4999 15.9362L22.413 16.191L22.5468 16.2324" fill="white"/>
<path d="M22.4999 15.9362L22.5869 16.191L22.4531 16.2324" fill="white"/>
<path d="M22.7554 16.1213L22.4862 16.15L22.4982 16.2552" fill="white"/>
<path d="M22.7675 16.0802L22.5805 16.2788L22.4573 16.2115" fill="white"/>
<path d="M22.2325 16.0802L22.4194 16.2787L22.5427 16.2115" fill="white"/>
<path d="M22.2446 16.1213L22.5138 16.15L22.5017 16.2552" fill="white"/>
<path d="M22.6653 16.4241L22.5803 16.166L22.4446 16.2041" fill="white"/>
<path d="M22.6709 16.4208L22.4377 16.2672L22.5148 16.155" fill="white"/>
<path d="M22.329 16.4208L22.5622 16.2672L22.4852 16.155" fill="white"/>
<path d="M22.3347 16.4241L22.4196 16.166L22.5553 16.2041" fill="white"/>
<path d="M21.7072 16.6633L21.6376 16.8671L21.7446 16.9002" fill="white"/>
<path d="M21.7072 16.6633L21.7767 16.8671L21.6697 16.9002" fill="white"/>
<path d="M21.9115 16.8113L21.6961 16.8343L21.7058 16.9185" fill="white"/>
<path d="M21.9211 16.7784L21.7716 16.9373L21.673 16.8835" fill="white"/>
<path d="M21.4932 16.7784L21.6427 16.9373L21.7413 16.8835" fill="white"/>
<path d="M21.5028 16.8113L21.7182 16.8343L21.7085 16.9185" fill="white"/>
<path d="M21.8394 17.0536L21.7714 16.8471L21.6629 16.8776" fill="white"/>
<path d="M21.8439 17.0509L21.6574 16.9281L21.719 16.8383" fill="white"/>
<path d="M21.5704 17.0509L21.7569 16.9281L21.6953 16.8383" fill="white"/>
<path d="M21.5749 17.0536L21.6429 16.8471L21.7514 16.8776" fill="white"/>
<path d="M22.1036 17.2449L22.0539 17.3905L22.1303 17.4141" fill="white"/>
<path d="M22.1036 17.2449L22.1532 17.3905L22.0768 17.4141" fill="white"/>
<path d="M22.2496 17.3506L22.0957 17.367L22.1026 17.4272" fill="white"/>
<path d="M22.2564 17.3272L22.1496 17.4406L22.0792 17.4022" fill="white"/>
<path d="M21.9507 17.3272L22.0576 17.4406L22.128 17.4022" fill="white"/>
<path d="M21.9576 17.3507L22.1115 17.3671L22.1046 17.4272" fill="white"/>
<path d="M22.1981 17.5237L22.1495 17.3762L22.072 17.398" fill="white"/>
<path d="M22.2012 17.5218L22.068 17.434L22.112 17.3699" fill="white"/>
<path d="M22.0059 17.5218L22.1392 17.434L22.0951 17.3699" fill="white"/>
<path d="M22.0091 17.5237L22.0577 17.3762L22.1352 17.398" fill="white"/>
<path d="M24.8571 19.7832L24.7702 20.0379L24.9039 20.0793" fill="white"/>
<path d="M24.8571 19.7832L24.944 20.0379L24.8103 20.0793" fill="white"/>
<path d="M25.1125 19.9682L24.8434 19.9969L24.8554 20.1022" fill="white"/>
<path d="M25.1246 19.9271L24.9377 20.1257L24.8144 20.0585" fill="white"/>
<path d="M24.5897 19.9271L24.7766 20.1257L24.8999 20.0585" fill="white"/>
<path d="M24.6017 19.9683L24.8709 19.9969L24.8589 20.1022" fill="white"/>
<path d="M25.0225 20.2711L24.9375 20.013L24.8018 20.051" fill="white"/>
<path d="M25.0281 20.2677L24.7949 20.1142L24.8719 20.0019" fill="white"/>
<path d="M24.6862 20.2677L24.9194 20.1142L24.8424 20.0019" fill="white"/>
<path d="M24.6918 20.2711L24.7768 20.013L24.9125 20.051" fill="white"/>
<path d="M25.5322 19.1735L25.4626 19.3773L25.5696 19.4104" fill="white"/>
<path d="M25.5322 19.1735L25.6017 19.3773L25.4947 19.4104" fill="white"/>
<path d="M25.7365 19.3215L25.5212 19.3445L25.5308 19.4287" fill="white"/>
<path d="M25.7462 19.2886L25.5966 19.4475L25.498 19.3937" fill="white"/>
<path d="M25.3182 19.2886L25.4677 19.4475L25.5663 19.3937" fill="white"/>
<path d="M25.3278 19.3215L25.5432 19.3445L25.5335 19.4287" fill="white"/>
<path d="M25.6644 19.5638L25.5964 19.3573L25.4879 19.3878" fill="white"/>
<path d="M25.6689 19.5611L25.4824 19.4383L25.544 19.3485" fill="white"/>
<path d="M25.3954 19.5611L25.5819 19.4383L25.5203 19.3485" fill="white"/>
<path d="M25.3999 19.5638L25.4679 19.3573L25.5764 19.3878" fill="white"/>
<path d="M24.2357 18.9898L24.1662 19.1936L24.2732 19.2267" fill="white"/>
<path d="M24.2357 18.9898L24.3052 19.1936L24.1983 19.2267" fill="white"/>
<path d="M24.4401 19.1379L24.2247 19.1608L24.2343 19.245" fill="white"/>
<path d="M24.4497 19.105L24.3001 19.2638L24.2016 19.21" fill="white"/>
<path d="M24.0217 19.105L24.1713 19.2638L24.2699 19.21" fill="white"/>
<path d="M24.0314 19.1379L24.2467 19.1608L24.2371 19.245" fill="white"/>
<path d="M24.368 19.3801L24.3 19.1737L24.1915 19.2041" fill="white"/>
<path d="M24.3725 19.3775L24.186 19.2546L24.2476 19.1648" fill="white"/>
<path d="M24.0989 19.3775L24.2855 19.2546L24.2239 19.1648" fill="white"/>
<path d="M24.1035 19.3801L24.1714 19.1737L24.28 19.2041" fill="white"/>
<path d="M19.3393 18.6582L19.235 18.9639L19.3955 19.0135" fill="white"/>
<path d="M19.3393 18.6582L19.4436 18.9639L19.2831 19.0135" fill="white"/>
<path d="M19.6458 18.8802L19.3228 18.9146L19.3372 19.041" fill="white"/>
<path d="M19.6603 18.8309L19.4359 19.0692L19.288 18.9885" fill="white"/>
<path d="M19.0183 18.8309L19.2427 19.0692L19.3905 18.9885" fill="white"/>
<path d="M19.0328 18.8803L19.3558 18.9147L19.3413 19.041" fill="white"/>
<path d="M19.5377 19.2436L19.4357 18.9339L19.2729 18.9796" fill="white"/>
<path d="M19.5444 19.2396L19.2646 19.0553L19.3571 18.9207" fill="white"/>
<path d="M19.1342 19.2396L19.414 19.0553L19.3215 18.9207" fill="white"/>
<path d="M19.1409 19.2436L19.2429 18.9339L19.4057 18.9796" fill="white"/>
<path d="M22.5 20.7602L22.4652 20.8621L22.5187 20.8786" fill="white"/>
<path d="M22.5 20.7602L22.5348 20.8621L22.4813 20.8786" fill="white"/>
<path d="M22.6022 20.8342L22.4945 20.8457L22.4993 20.8878" fill="white"/>
<path d="M22.607 20.8178L22.5322 20.8972L22.4829 20.8703" fill="white"/>
<path d="M22.393 20.8178L22.4678 20.8972L22.5171 20.8703" fill="white"/>
<path d="M22.3978 20.8342L22.5055 20.8457L22.5007 20.8878" fill="white"/>
<path d="M22.5661 20.9554L22.5321 20.8521L22.4778 20.8673" fill="white"/>
<path d="M22.5684 20.954L22.4751 20.8926L22.5059 20.8477" fill="white"/>
<path d="M22.4316 20.954L22.5248 20.8926L22.494 20.8477" fill="white"/>
<path d="M22.4338 20.9553L22.4678 20.8521L22.5221 20.8673" fill="white"/>
</g>
<rect x="0.5" y="0.5" width="44" height="29" stroke="#0047FF" stroke-opacity="0.5"/>
<defs>
<clipPath id="clip0_9_43">
<rect width="45" height="30" fill="white"/>
</clipPath>
</defs>
</svg>
