<svg width="147" height="51" viewBox="0 0 147 51" fill="none" xmlns="http://www.w3.org/2000/svg">
<g filter="url(#filter0_d_9_4)">
<path d="M3.29545 22.75V18.4545C5.29545 18.4545 6.68182 18.0682 7.45455 17.2955C8.22727 16.5114 8.61364 15.2841 8.61364 13.6136V10.9545C8.61364 8.5 8.99432 6.60227 9.75568 5.26136C10.5284 3.90909 11.5625 2.94318 12.858 2.36364C14.1648 1.78409 15.642 1.4375 17.2898 1.32386C18.9375 1.19886 20.6364 1.13636 22.3864 1.13636V7.95454C21.0227 7.95454 20.0114 8.10795 19.3523 8.41477C18.6932 8.72159 18.2614 9.1875 18.0568 9.8125C17.8523 10.4375 17.75 11.2273 17.75 12.1818V15.9318C17.75 16.7841 17.5568 17.6193 17.1705 18.4375C16.7955 19.2443 16.0966 19.9716 15.0739 20.6193C14.0511 21.267 12.5909 21.7841 10.6932 22.1705C8.79545 22.5568 6.32955 22.75 3.29545 22.75ZM22.3864 43.9545C20.6364 43.9545 18.9375 43.892 17.2898 43.767C15.642 43.6534 14.1648 43.3068 12.858 42.7273C11.5625 42.1477 10.5284 41.1875 9.75568 39.8466C8.99432 38.4943 8.61364 36.5909 8.61364 34.1364V31.4773C8.61364 29.8068 8.22727 28.5852 7.45455 27.8125C6.68182 27.0284 5.29545 26.6364 3.29545 26.6364V22.3409C6.32955 22.3409 8.79545 22.5341 10.6932 22.9205C12.5909 23.3068 14.0511 23.8239 15.0739 24.4716C16.0966 25.1193 16.7955 25.8523 17.1705 26.6705C17.5568 27.4773 17.75 28.3068 17.75 29.1591V32.9091C17.75 33.8523 17.8523 34.642 18.0568 35.2784C18.2614 35.9034 18.6932 36.3693 19.3523 36.6761C20.0114 36.983 21.0227 37.1364 22.3864 37.1364V43.9545ZM3.29545 26.6364V18.4545H10.7955V26.6364H3.29545ZM39.777 5.09091H49.1179V29.0227C49.1065 31.2955 48.5327 33.2955 47.3963 35.0227C46.2713 36.7386 44.7145 38.0795 42.7259 39.0455C40.7486 40 38.4702 40.4773 35.8906 40.4773C33.652 40.4773 31.6065 40.0909 29.7543 39.3182C27.902 38.5341 26.4247 37.3068 25.3224 35.6364C24.2202 33.9545 23.6747 31.7727 23.6861 29.0909H33.1634C33.1974 29.9659 33.3452 30.7045 33.6065 31.3068C33.8793 31.9091 34.2543 32.3636 34.7315 32.6705C35.2202 32.9659 35.8111 33.1136 36.5043 33.1136C37.2088 33.1136 37.7997 32.9602 38.277 32.6534C38.7656 32.3466 39.1349 31.892 39.3849 31.2898C39.6349 30.6761 39.7656 29.9205 39.777 29.0227V5.09091ZM62.6776 40H52.4503L63.973 5.09091H76.9276L88.4503 40H78.223L70.5866 14.7045H70.3139L62.6776 40ZM60.7685 26.2273H79.9957V33.3182H60.7685V26.2273ZM91.8125 40V5.09091H106.881C109.472 5.09091 111.739 5.5625 113.682 6.50568C115.625 7.44886 117.136 8.80682 118.216 10.5795C119.295 12.3523 119.835 14.4773 119.835 16.9545C119.835 19.4545 119.278 21.5625 118.165 23.2784C117.063 24.9943 115.511 26.2898 113.511 27.1648C111.523 28.0398 109.199 28.4773 106.54 28.4773H97.5398V21.1136H104.631C105.744 21.1136 106.693 20.9773 107.477 20.7045C108.273 20.4205 108.881 19.9716 109.301 19.358C109.733 18.7443 109.949 17.9432 109.949 16.9545C109.949 15.9545 109.733 15.142 109.301 14.517C108.881 13.8807 108.273 13.4148 107.477 13.1193C106.693 12.8125 105.744 12.6591 104.631 12.6591H101.29V40H91.8125ZM112.267 23.9773L120.994 40H110.699L102.176 23.9773H112.267ZM141.466 22.3409V26.6364C139.477 26.6364 138.091 27.0284 137.307 27.8125C136.534 28.5852 136.148 29.8068 136.148 31.4773V34.1364C136.148 36.5909 135.761 38.4943 134.989 39.8466C134.227 41.1875 133.193 42.1477 131.886 42.7273C130.591 43.3068 129.119 43.6534 127.472 43.767C125.835 43.892 124.136 43.9545 122.375 43.9545V37.1364C123.739 37.1364 124.75 36.983 125.409 36.6761C126.068 36.3693 126.5 35.9034 126.705 35.2784C126.909 34.642 127.011 33.8523 127.011 32.9091V29.1591C127.011 28.3068 127.199 27.4773 127.574 26.6705C127.96 25.8523 128.665 25.1193 129.688 24.4716C130.71 23.8239 132.17 23.3068 134.068 22.9205C135.966 22.5341 138.432 22.3409 141.466 22.3409ZM122.375 1.13636C124.136 1.13636 125.835 1.19886 127.472 1.32386C129.119 1.4375 130.591 1.78409 131.886 2.36364C133.193 2.94318 134.227 3.90909 134.989 5.26136C135.761 6.60227 136.148 8.5 136.148 10.9545V13.6136C136.148 15.2841 136.534 16.5114 137.307 17.2955C138.091 18.0682 139.477 18.4545 141.466 18.4545V22.75C138.432 22.75 135.966 22.5568 134.068 22.1705C132.17 21.7841 130.71 21.267 129.688 20.6193C128.665 19.9716 127.96 19.2443 127.574 18.4375C127.199 17.6193 127.011 16.7841 127.011 15.9318V12.1818C127.011 11.2273 126.909 10.4375 126.705 9.8125C126.5 9.1875 126.068 8.72159 125.409 8.41477C124.75 8.10795 123.739 7.95454 122.375 7.95454V1.13636ZM141.466 18.4545V26.6364H133.966V18.4545H141.466Z" fill="white"/>
</g>
<defs>
<filter id="filter0_d_9_4" x="0.295471" y="0.136353" width="146.17" height="50.8182" filterUnits="userSpaceOnUse" color-interpolation-filters="sRGB">
<feFlood flood-opacity="0" result="BackgroundImageFix"/>
<feColorMatrix in="SourceAlpha" type="matrix" values="0 0 0 0 0 0 0 0 0 0 0 0 0 0 0 0 0 0 127 0" result="hardAlpha"/>
<feOffset dx="1" dy="3"/>
<feGaussianBlur stdDeviation="2"/>
<feComposite in2="hardAlpha" operator="out"/>
<feColorMatrix type="matrix" values="0 0 0 0 0 0 0 0 0 0.76 0 0 0 0 1 0 0 0 0.25 0"/>
<feBlend mode="normal" in2="BackgroundImageFix" result="effect1_dropShadow_9_4"/>
<feBlend mode="normal" in="SourceGraphic" in2="effect1_dropShadow_9_4" result="shape"/>
</filter>
</defs>
</svg>
